<?xml version="1.0" standalone="no"?><!DOCTYPE svg PUBLIC "-//W3C//DTD SVG 1.1//EN" "http://www.w3.org/Graphics/SVG/1.1/DTD/svg11.dtd"><svg t="1608099437181" class="icon" viewBox="0 0 1024 1024" version="1.1" xmlns="http://www.w3.org/2000/svg" p-id="22793" xmlns:xlink="http://www.w3.org/1999/xlink" width="32" height="32"><defs><style type="text/css"></style></defs><path d="M854.3701333333333 486.1984c3.3706666666666667 8.4 5.333333333333333 17.50186666666667 5.333333333333333 27.087999999999997l0 339.8197333333334c0 40.218666666666664-21.674666666666667 61.89333333333333-61.888000000000005 61.89333333333333L226.18986666666666 914.9994666666666c-40.218666666666664 0-61.89333333333333-21.674666666666667-61.89333333333333-61.89333333333333L164.29653333333334 513.2864000000001c0-9.610666666666667 1.9658666666666667-18.712533333333333 5.338666666666667-27.087999999999997-30.970666666666666-8.373333333333333-53.885866666666665-25.4368-53.885866666666665-59.07733333333333l0-121.36533333333334c0-40.218666666666664 21.674666666666667-61.89333333333333 61.89653333333333-61.89333333333333l286.36906666666664 0-103.984-109.44533333333334c-9.562666666666667-9.562666666666667-15.024000000000001-19.589333333333332-5.461333333333333-29.151999999999997 9.5872-9.5872 19.613866666666667-4.125866666666666 29.2 5.461333333333333l121.216 121.2192c4.588799999999999 4.586666666666666 15.069866666666666 10.509866666666666 7.016533333333333 11.139199999999999 7.509333333333333-2.6986666666666665-3.034666666666667 4.394666666666667 1.5573333333333332-0.21653333333333336l121.216-126.68053333333334c9.584-9.5872 25.072-20.509866666666667 34.656-10.922666666666666 7.850666666666667 9.8528-1.3546666666666667 25.050666666666665-10.922666666666666 34.61333333333334l-98.51733333333333 103.984 286.36906666666664 0c40.21333333333334 0 61.89333333333333 21.674666666666667 61.89333333333333 61.89333333333333l0 121.36533333333334C908.2528 460.7616 885.3621333333333 477.82506666666666 854.3701333333333 486.1984zM773.5381333333333 877.3781333333334c26.794666666666668 0 48.544-21.749333333333333 48.544-48.544L822.0821333333333 537.5584c0-26.794666666666668-21.749333333333333-48.544-48.544-48.544L530.8117333333333 489.0144l0 388.36373333333336L773.5381333333333 877.3781333333334zM201.91786666666667 828.8341333333334c0 26.794666666666668 21.749333333333333 48.544 48.5472 48.544l242.7264 0L493.1914666666667 489.0144 250.46506666666664 489.0144c-26.797866666666668 0-48.5472 21.749333333333333-48.5472 48.544L201.91786666666667 828.8341333333334zM201.91786666666667 281.48373333333336c-26.797866666666668 0-48.544 21.749333333333333-48.544 48.5472l0 72.816c0 26.797866666666668 21.747200000000003 48.5472 48.544 48.5472l291.2725333333333 0L493.1904 281.48373333333336 201.91786666666667 281.48373333333336zM870.6261333333333 330.03093333333334c0-26.797866666666668-21.744-48.5472-48.544-48.5472L530.8117333333333 281.48373333333336l0 169.91039999999998 291.2704 0c26.8 0 48.544-21.749333333333333 48.544-48.5472L870.6261333333333 330.03093333333334z" p-id="22794" fill="#7f7f7f"></path></svg>