<?xml version="1.0" standalone="no"?><!DOCTYPE svg PUBLIC "-//W3C//DTD SVG 1.1//EN" "http://www.w3.org/Graphics/SVG/1.1/DTD/svg11.dtd"><svg t="1608106273220" class="icon" viewBox="0 0 1024 1024" version="1.1" xmlns="http://www.w3.org/2000/svg" p-id="61911" xmlns:xlink="http://www.w3.org/1999/xlink" width="32" height="32"><defs><style type="text/css"></style></defs><path d="M870.2 555.8c-44.5-205.1-157-269.8-161.7-272.5l-37.9-21-1.6 43.4c-0.1 3.1-3 64.4-48.7 112.6-7.8-80.7-33.7-235.1-119.1-313.4L459 66.4l-2.3 57.2c-0.2 3.9-5.3 97.3-123.5 190.9C198.7 421.1 78.7 604.6 183 771.3c75.5 120.5 197.7 186.3 338.6 186.3 34.6 0 70.4-4 106.9-12.1 192-42.7 284.6-192 241.7-389.7zM542.2 667c28.6 56.1 16.2 184.1-12.8 237l-11.7 0.2c-23.9-16.3-50.6-113.9-37.1-195.6 2.3-14.3 11.9-60.8 36.5-61.4 4.9-0.1 14.9-0.2 25.1 19.8zM617 893.5c-9.4 2.1-18.7 3.8-28 5.3 26.2-75.2 32.5-193.6 0.7-256-16.4-32.2-42.9-49.7-73.7-48.8-21.3 0.5-72.4 11.7-87.9 106-9.4 57.4-2.4 141.3 22.9 198-92.2-17.4-169.8-70.1-222.9-155-85.6-136.8 20.9-293.8 138.1-386.7 79.9-63.3 115.3-128.6 131.1-173.5 68.7 105.5 73 286.1 73.1 288.2l0.9 45.5 39.2-23c64.7-38 92-96.2 103.4-137.4 31.7 32.1 79.5 96.7 104.4 211.1 36.4 168.2-38.8 290.2-201.3 326.3z" fill="#dc292e" p-id="61912"></path></svg>