<?xml version="1.0" standalone="no"?><!DOCTYPE svg PUBLIC "-//W3C//DTD SVG 1.1//EN" "http://www.w3.org/Graphics/SVG/1.1/DTD/svg11.dtd"><svg t="1608100194216" class="icon" viewBox="0 0 1024 1024" version="1.1" xmlns="http://www.w3.org/2000/svg" p-id="56396" xmlns:xlink="http://www.w3.org/1999/xlink" width="32" height="32"><defs><style type="text/css"></style></defs><path d="M517.818182 592.011636h-6.516364c-81.850182-2.466909-155.345455-35.118545-207.616-91.950545-52.712727-55.016727-81.92-129.140364-81.92-208.430546 2.373818-78.196364 34.909091-150.807273 91.601455-205.14909C368.686545 33.442909 443.624727 4.235636 524.288 4.235636 686.592 8.936727 816.174545 143.848727 813.847273 304.965818c-2.350545 77.847273-34.885818 150.434909-91.601455 204.8a294.167273 294.167273 0 0 1-204.427636 82.245818z m5.818182-541.230545c-67.956364 0-131.421091 24.622545-178.059637 69.329454-47.848727 45.847273-75.287273 107.008-77.265454 172.241455 0 66.513455 24.622545 129.210182 69.329454 175.848727 44.055273 47.895273 105.867636 75.194182 174.405818 77.265455h5.79491c64.442182 0 125.602909-24.622545 172.241454-69.306182 47.848727-45.870545 75.287273-107.031273 77.265455-172.241455 1.931636-135.470545-107.403636-249.181091-243.712-253.137454z" fill="#7F7F7F" p-id="56397"></path><path d="M853.364364 1016.599273H182.272a131.653818 131.653818 0 0 1-131.514182-131.514182c0-10.356364 0-21.085091 3.351273-31.162182l1.675636-6.981818c8.122182-30.836364 53.573818-186.368 158.231273-246.178909 40.215273-22.621091 81.687273-27.601455 124.183273-15.104 34.909091 10.914909 62.952727 19.549091 84.549818 26.018909 27.275636 9.099636 60.904727 14.173091 92.904727 14.173091 39.773091 0 75.752727-7.912727 88.226909-13.265455 42.821818-16.477091 87.831273-31.441455 132.701091-31.441454 17.198545 0 33.838545 2.234182 49.454546 6.609454 86.853818 24.529455 151.272727 110.08 191.511272 254.277818 1.373091 5.422545 7.330909 29.975273 7.330909 40.890182 0 74.961455-57.762909 133.678545-131.514181 133.678546z m-560.407273-391.144728c-18.781091 0-37.073455 5.166545-55.970909 15.802182-90.274909 51.572364-131.677091 200.471273-136.098909 217.274182l-2.094546 8.401455c-1.466182 4.608-1.466182 12.450909-1.466182 18.152727a85.061818 85.061818 0 0 0 84.968728 84.968727h671.092363c48.453818 0 84.968727-37.469091 84.968728-87.133091-0.139636-3.421091-3.025455-17.896727-5.794909-29.021091-35.397818-126.859636-88.994909-201.541818-159.092364-221.346909-44.660364-12.497455-100.887273 3.467636-152.017455 23.133091-18.920727 8.122182-61.114182 16.709818-103.610181 16.709818-23.784727 0-66.443636-2.117818-109.102546-16.360727-21.038545-6.306909-49.268364-14.987636-84.014545-25.832727a113.291636 113.291636 0 0 0-31.767273-4.747637z" fill="#7F7F7F" p-id="56398"></path></svg>