<?xml version="1.0" standalone="no"?><!DOCTYPE svg PUBLIC "-//W3C//DTD SVG 1.1//EN" "http://www.w3.org/Graphics/SVG/1.1/DTD/svg11.dtd"><svg t="1608099673975" class="icon" viewBox="0 0 1024 1024" version="1.1" xmlns="http://www.w3.org/2000/svg" p-id="31182" xmlns:xlink="http://www.w3.org/1999/xlink" width="32" height="32"><defs><style type="text/css"></style></defs><path d="M675.4 551.5c-3.4 0-6.8-0.5-10.1-1.7-16.7-5.6-25.8-23.6-20.3-40.3 3.6-11 32.1-108.1-56.4-145.5-16.3-6.9-23.9-25.6-17-41.9 6.8-16.3 25.6-23.9 41.9-17 115.9 48.9 111 168.3 92.3 224.5-4.5 13.4-17 21.9-30.4 21.9z" p-id="31183" fill="#7f7f7f"></path><path d="M832.2 843.2H184.8V460c0-170.4 138.7-309.1 309.1-309.1h29.2c170.4 0 309.1 138.7 309.1 309.1v383.2z m-583.5-64h519.5V460c0-135.2-110-245.2-245.2-245.2h-29.2c-135.2 0-245.2 110-245.2 245.2v319.2z" p-id="31184" fill="#7f7f7f"></path><path d="M877.3 843.2H139.7c-0.8 0-1.5-0.7-1.5-1.5v-61c0-0.8 0.7-1.5 1.5-1.5h737.6c0.8 0 1.5 0.7 1.5 1.5v61c0 0.8-0.7 1.5-1.5 1.5zM596.8 125.1H420.2c-0.8 0-1.5-0.7-1.5-1.5v-61c0-0.8 0.7-1.5 1.5-1.5h176.5c0.8 0 1.5 0.7 1.5 1.5v61c0.1 0.8-0.6 1.5-1.4 1.5z" p-id="31185" fill="#7f7f7f"></path><path d="M508.5 955.4c-79.5 0-144.2-64.7-144.2-144.2 0-17.7 14.3-32 32-32s32 14.3 32 32c0 44.2 36 80.2 80.2 80.2s80.2-36 80.2-80.2c0-17.7 14.3-32 32-32s32 14.3 32 32c0 79.5-64.7 144.2-144.2 144.2z" p-id="31186" fill="#7f7f7f"></path></svg>